<mxfile host="app.diagrams.net" agent="Mozilla/5.0 (Windows NT 10.0; Win64; x64) AppleWebKit/537.36 (KHTML, like Gecko) Chrome/134.0.0.0 Safari/537.36" version="26.1.1">
  <diagram name="Page-1" id="4bKjVvMlJ-T0D9JTL-af">
    <mxGraphModel dx="1050" dy="603" grid="1" gridSize="10" guides="1" tooltips="1" connect="1" arrows="1" fold="1" page="1" pageScale="1" pageWidth="850" pageHeight="1100" math="0" shadow="0">
      <root>
        <mxCell id="0" />
        <mxCell id="1" parent="0" />
        <mxCell id="_E9qSlzbZSGINx3IHebU-1" value="" style="rounded=0;whiteSpace=wrap;html=1;" vertex="1" parent="1">
          <mxGeometry x="10" y="24" width="920" height="60" as="geometry" />
        </mxCell>
        <mxCell id="_E9qSlzbZSGINx3IHebU-2" value="" style="sketch=0;outlineConnect=0;fontColor=#232F3E;gradientColor=none;fillColor=#ED7100;strokeColor=none;dashed=0;verticalLabelPosition=bottom;verticalAlign=top;align=center;html=1;fontSize=12;fontStyle=0;aspect=fixed;pointerEvents=1;shape=mxgraph.aws4.container_registry_image;" vertex="1" parent="1">
          <mxGeometry x="33" y="31" width="48" height="48" as="geometry" />
        </mxCell>
        <mxCell id="_E9qSlzbZSGINx3IHebU-4" value="Mahikeng Chamber of Commerce&lt;div&gt;&lt;br&gt;&lt;/div&gt;" style="text;html=1;align=center;verticalAlign=middle;whiteSpace=wrap;rounded=0;" vertex="1" parent="1">
          <mxGeometry x="86" y="30" width="190" height="30" as="geometry" />
        </mxCell>
        <mxCell id="_E9qSlzbZSGINx3IHebU-5" value="Home&lt;div&gt;&lt;br&gt;&lt;/div&gt;" style="text;strokeColor=none;fillColor=none;html=1;fontSize=24;fontStyle=0;verticalAlign=middle;align=center;" vertex="1" parent="1">
          <mxGeometry x="370" y="56" width="100" height="40" as="geometry" />
        </mxCell>
        <mxCell id="_E9qSlzbZSGINx3IHebU-8" value="Directory&lt;div&gt;&lt;br&gt;&lt;/div&gt;" style="text;strokeColor=none;fillColor=none;html=1;fontSize=24;fontStyle=0;verticalAlign=middle;align=center;" vertex="1" parent="1">
          <mxGeometry x="485" y="54" width="100" height="40" as="geometry" />
        </mxCell>
        <mxCell id="_E9qSlzbZSGINx3IHebU-9" value="Join&lt;div&gt;&lt;br&gt;&lt;/div&gt;" style="text;strokeColor=none;fillColor=none;html=1;fontSize=24;fontStyle=0;verticalAlign=middle;align=center;" vertex="1" parent="1">
          <mxGeometry x="580" y="53" width="100" height="40" as="geometry" />
        </mxCell>
        <mxCell id="_E9qSlzbZSGINx3IHebU-10" value="Discover&lt;div&gt;&lt;br&gt;&lt;/div&gt;" style="text;strokeColor=none;fillColor=none;html=1;fontSize=24;fontStyle=0;verticalAlign=middle;align=center;" vertex="1" parent="1">
          <mxGeometry x="662" y="51" width="100" height="43" as="geometry" />
        </mxCell>
        <mxCell id="_E9qSlzbZSGINx3IHebU-12" value="" style="rounded=0;whiteSpace=wrap;html=1;" vertex="1" parent="1">
          <mxGeometry x="40" y="86" width="770" height="254" as="geometry" />
        </mxCell>
        <mxCell id="_E9qSlzbZSGINx3IHebU-13" value="" style="endArrow=none;html=1;rounded=0;exitX=0;exitY=1;exitDx=0;exitDy=0;entryX=1;entryY=0;entryDx=0;entryDy=0;" edge="1" parent="1" source="_E9qSlzbZSGINx3IHebU-12" target="_E9qSlzbZSGINx3IHebU-12">
          <mxGeometry width="50" height="50" relative="1" as="geometry">
            <mxPoint x="403" y="177" as="sourcePoint" />
            <mxPoint x="480" y="120" as="targetPoint" />
          </mxGeometry>
        </mxCell>
        <mxCell id="_E9qSlzbZSGINx3IHebU-14" value="" style="endArrow=none;html=1;rounded=0;entryX=0;entryY=0;entryDx=0;entryDy=0;exitX=1;exitY=1;exitDx=0;exitDy=0;" edge="1" parent="1" source="_E9qSlzbZSGINx3IHebU-12" target="_E9qSlzbZSGINx3IHebU-12">
          <mxGeometry width="50" height="50" relative="1" as="geometry">
            <mxPoint x="450" y="190" as="sourcePoint" />
            <mxPoint x="310" y="150" as="targetPoint" />
          </mxGeometry>
        </mxCell>
        <mxCell id="_E9qSlzbZSGINx3IHebU-18" value="Scalable, responsive hero image" style="text;html=1;align=center;verticalAlign=middle;whiteSpace=wrap;rounded=0;" vertex="1" parent="1">
          <mxGeometry x="327" y="243" width="160" height="30" as="geometry" />
        </mxCell>
        <mxCell id="_E9qSlzbZSGINx3IHebU-19" value="Home&lt;div&gt;&lt;br&gt;&lt;/div&gt;" style="text;strokeColor=none;fillColor=none;html=1;fontSize=24;fontStyle=0;verticalAlign=middle;align=center;" vertex="1" parent="1">
          <mxGeometry x="36" y="354" width="100" height="40" as="geometry" />
        </mxCell>
        <mxCell id="_E9qSlzbZSGINx3IHebU-25" value="" style="rounded=0;whiteSpace=wrap;html=1;" vertex="1" parent="1">
          <mxGeometry x="27" y="402" width="273" height="188" as="geometry" />
        </mxCell>
        <mxCell id="_E9qSlzbZSGINx3IHebU-26" value="" style="rounded=0;whiteSpace=wrap;html=1;" vertex="1" parent="1">
          <mxGeometry x="343" y="403" width="230" height="187" as="geometry" />
        </mxCell>
        <mxCell id="_E9qSlzbZSGINx3IHebU-27" value="" style="rounded=0;whiteSpace=wrap;html=1;" vertex="1" parent="1">
          <mxGeometry x="632" y="402" width="237" height="188" as="geometry" />
        </mxCell>
        <mxCell id="_E9qSlzbZSGINx3IHebU-32" value="" style="verticalLabelPosition=bottom;shadow=0;dashed=0;align=center;html=1;verticalAlign=top;strokeWidth=1;shape=mxgraph.mockup.markup.line;strokeColor=#999999;" vertex="1" parent="1">
          <mxGeometry x="27" y="422" width="273" height="20" as="geometry" />
        </mxCell>
        <mxCell id="_E9qSlzbZSGINx3IHebU-33" value="" style="verticalLabelPosition=bottom;shadow=0;dashed=0;align=center;html=1;verticalAlign=top;strokeWidth=1;shape=mxgraph.mockup.markup.line;strokeColor=#999999;" vertex="1" parent="1">
          <mxGeometry x="341" y="420" width="231" height="20" as="geometry" />
        </mxCell>
        <mxCell id="_E9qSlzbZSGINx3IHebU-34" value="" style="verticalLabelPosition=bottom;shadow=0;dashed=0;align=center;html=1;verticalAlign=top;strokeWidth=1;shape=mxgraph.mockup.markup.line;strokeColor=#999999;" vertex="1" parent="1">
          <mxGeometry x="629" y="420" width="240" height="20" as="geometry" />
        </mxCell>
        <mxCell id="_E9qSlzbZSGINx3IHebU-35" value="Events" style="text;html=1;align=center;verticalAlign=middle;whiteSpace=wrap;rounded=0;" vertex="1" parent="1">
          <mxGeometry x="125" y="400" width="60" height="30" as="geometry" />
        </mxCell>
        <mxCell id="_E9qSlzbZSGINx3IHebU-36" value="Current Weather&lt;div&gt;&lt;br&gt;&lt;/div&gt;" style="text;html=1;align=center;verticalAlign=middle;whiteSpace=wrap;rounded=0;" vertex="1" parent="1">
          <mxGeometry x="406" y="408" width="93" height="30" as="geometry" />
        </mxCell>
        <mxCell id="_E9qSlzbZSGINx3IHebU-37" value="Weather Forecast&lt;div&gt;&lt;br&gt;&lt;/div&gt;" style="text;html=1;align=center;verticalAlign=middle;whiteSpace=wrap;rounded=0;" vertex="1" parent="1">
          <mxGeometry x="666" y="406" width="125" height="30" as="geometry" />
        </mxCell>
        <mxCell id="_E9qSlzbZSGINx3IHebU-38" value="" style="shape=image;html=1;verticalAlign=top;verticalLabelPosition=bottom;labelBackgroundColor=#ffffff;imageAspect=0;aspect=fixed;image=https://cdn2.iconfinder.com/data/icons/weather-color-2/500/weather-07-128.png" vertex="1" parent="1">
          <mxGeometry x="339" y="420" width="83" height="83" as="geometry" />
        </mxCell>
        <mxCell id="_E9qSlzbZSGINx3IHebU-39" value="" style="rounded=0;whiteSpace=wrap;html=1;" vertex="1" parent="1">
          <mxGeometry x="27" y="615" width="273" height="188" as="geometry" />
        </mxCell>
        <mxCell id="_E9qSlzbZSGINx3IHebU-40" value="" style="rounded=0;whiteSpace=wrap;html=1;" vertex="1" parent="1">
          <mxGeometry x="313" y="615" width="273" height="188" as="geometry" />
        </mxCell>
        <mxCell id="_E9qSlzbZSGINx3IHebU-41" value="" style="rounded=0;whiteSpace=wrap;html=1;" vertex="1" parent="1">
          <mxGeometry x="312" y="816" width="273" height="188" as="geometry" />
        </mxCell>
        <mxCell id="_E9qSlzbZSGINx3IHebU-42" value="" style="rounded=0;whiteSpace=wrap;html=1;" vertex="1" parent="1">
          <mxGeometry x="26" y="815" width="273" height="188" as="geometry" />
        </mxCell>
        <mxCell id="_E9qSlzbZSGINx3IHebU-43" value="" style="rounded=0;whiteSpace=wrap;html=1;" vertex="1" parent="1">
          <mxGeometry x="598" y="615" width="273" height="188" as="geometry" />
        </mxCell>
        <mxCell id="_E9qSlzbZSGINx3IHebU-44" value="" style="rounded=0;whiteSpace=wrap;html=1;" vertex="1" parent="1">
          <mxGeometry x="597" y="816" width="273" height="188" as="geometry" />
        </mxCell>
        <mxCell id="_E9qSlzbZSGINx3IHebU-45" value="" style="rounded=0;whiteSpace=wrap;html=1;" vertex="1" parent="1">
          <mxGeometry x="26" y="1012" width="273" height="188" as="geometry" />
        </mxCell>
        <mxCell id="_E9qSlzbZSGINx3IHebU-46" value="" style="rounded=0;whiteSpace=wrap;html=1;" vertex="1" parent="1">
          <mxGeometry x="312" y="1012" width="273" height="188" as="geometry" />
        </mxCell>
        <mxCell id="_E9qSlzbZSGINx3IHebU-47" value="" style="rounded=0;whiteSpace=wrap;html=1;" vertex="1" parent="1">
          <mxGeometry x="597" y="1012" width="273" height="188" as="geometry" />
        </mxCell>
        <mxCell id="_E9qSlzbZSGINx3IHebU-50" value="Tuesday&amp;nbsp;" style="text;html=1;align=center;verticalAlign=middle;whiteSpace=wrap;rounded=0;" vertex="1" parent="1">
          <mxGeometry x="636" y="467" width="60" height="30" as="geometry" />
        </mxCell>
        <mxCell id="_E9qSlzbZSGINx3IHebU-52" value="Wednesday&amp;nbsp;" style="text;html=1;align=center;verticalAlign=middle;whiteSpace=wrap;rounded=0;" vertex="1" parent="1">
          <mxGeometry x="642" y="504" width="60" height="30" as="geometry" />
        </mxCell>
        <mxCell id="_E9qSlzbZSGINx3IHebU-53" value="Today&lt;div&gt;&lt;br&gt;&lt;/div&gt;" style="text;html=1;align=center;verticalAlign=middle;whiteSpace=wrap;rounded=0;" vertex="1" parent="1">
          <mxGeometry x="627" y="441" width="60" height="30" as="geometry" />
        </mxCell>
        <mxCell id="_E9qSlzbZSGINx3IHebU-55" value="Sunny&lt;div&gt;&lt;br&gt;&lt;/div&gt;" style="text;html=1;align=center;verticalAlign=middle;whiteSpace=wrap;rounded=0;" vertex="1" parent="1">
          <mxGeometry x="411" y="465" width="60" height="30" as="geometry" />
        </mxCell>
        <mxCell id="_E9qSlzbZSGINx3IHebU-56" value="High&lt;div&gt;&lt;br&gt;&lt;/div&gt;" style="text;html=1;align=center;verticalAlign=middle;whiteSpace=wrap;rounded=0;" vertex="1" parent="1">
          <mxGeometry x="409" y="484" width="60" height="30" as="geometry" />
        </mxCell>
        <mxCell id="_E9qSlzbZSGINx3IHebU-57" value="Low&lt;div&gt;&lt;br&gt;&lt;/div&gt;" style="text;html=1;align=center;verticalAlign=middle;whiteSpace=wrap;rounded=0;" vertex="1" parent="1">
          <mxGeometry x="408" y="507" width="60" height="34" as="geometry" />
        </mxCell>
        <mxCell id="_E9qSlzbZSGINx3IHebU-58" value="Humidity&lt;div&gt;&lt;br&gt;&lt;/div&gt;" style="text;html=1;align=center;verticalAlign=middle;whiteSpace=wrap;rounded=0;" vertex="1" parent="1">
          <mxGeometry x="419" y="525" width="60" height="34" as="geometry" />
        </mxCell>
        <mxCell id="_E9qSlzbZSGINx3IHebU-59" value="Sunrise&lt;div&gt;&lt;br&gt;&lt;/div&gt;" style="text;html=1;align=center;verticalAlign=middle;whiteSpace=wrap;rounded=0;" vertex="1" parent="1">
          <mxGeometry x="418" y="550" width="60" height="34" as="geometry" />
        </mxCell>
        <mxCell id="_E9qSlzbZSGINx3IHebU-60" value="Sunset&lt;div&gt;&lt;br&gt;&lt;/div&gt;" style="text;html=1;align=center;verticalAlign=middle;whiteSpace=wrap;rounded=0;" vertex="1" parent="1">
          <mxGeometry x="416" y="569" width="60" height="34" as="geometry" />
        </mxCell>
        <mxCell id="_E9qSlzbZSGINx3IHebU-61" value="" style="rounded=0;whiteSpace=wrap;html=1;" vertex="1" parent="1">
          <mxGeometry x="2" y="1213" width="920" height="60" as="geometry" />
        </mxCell>
        <mxCell id="_E9qSlzbZSGINx3IHebU-63" value="" style="verticalLabelPosition=bottom;shadow=0;dashed=0;align=center;html=1;verticalAlign=top;strokeWidth=1;shape=mxgraph.mockup.markup.line;strokeColor=#999999;" vertex="1" parent="1">
          <mxGeometry x="27" y="644" width="273" height="20" as="geometry" />
        </mxCell>
        <mxCell id="_E9qSlzbZSGINx3IHebU-64" value="" style="verticalLabelPosition=bottom;shadow=0;dashed=0;align=center;html=1;verticalAlign=top;strokeWidth=1;shape=mxgraph.mockup.markup.line;strokeColor=#999999;" vertex="1" parent="1">
          <mxGeometry x="313" y="644" width="273" height="20" as="geometry" />
        </mxCell>
        <mxCell id="_E9qSlzbZSGINx3IHebU-66" value="" style="verticalLabelPosition=bottom;shadow=0;dashed=0;align=center;html=1;verticalAlign=top;strokeWidth=1;shape=mxgraph.mockup.markup.line;strokeColor=#999999;" vertex="1" parent="1">
          <mxGeometry x="597" y="643" width="273" height="20" as="geometry" />
        </mxCell>
      </root>
    </mxGraphModel>
  </diagram>
</mxfile>
